<svg width="54" height="54" viewBox="0 0 54 54" fill="none" xmlns="http://www.w3.org/2000/svg">
<g id="Button Arrow R">
<rect id="Rectangle 574" width="54" height="54" rx="17" transform="matrix(-1 0 0 1 54 0)" fill="#3366A7" fill-opacity="0.7"/>
<path id="Arrow 1" d="M41.4884 26.2929C41.8789 26.6834 41.8789 27.3166 41.4884 27.7071L35.1244 34.0711C34.7339 34.4616 34.1007 34.4616 33.7102 34.0711C33.3197 33.6805 33.3197 33.0474 33.7102 32.6569L39.367 27L33.7102 21.3431C33.3197 20.9526 33.3197 20.3195 33.7102 19.9289C34.1007 19.5384 34.7339 19.5384 35.1244 19.9289L41.4884 26.2929ZM13.2068 28C12.6545 28 12.2068 27.5523 12.2068 27C12.2068 26.4477 12.6545 26 13.2068 26V28ZM40.7812 28H13.2068V26H40.7812V28Z" fill="white"/>
</g>
</svg>
