<svg width="30" height="30" viewBox="0 0 30 30" fill="none" xmlns="http://www.w3.org/2000/svg">
<g id="Frame 49062">
<path id="Union" fill-rule="evenodd" clip-rule="evenodd" d="M6.25 11.75C6.25 6.9125 10.1625 3 15 3C19.8375 3 23.75 6.9125 23.75 11.75C23.75 18.3125 15 27 15 27C15 27 6.25 18.3125 6.25 11.75ZM15 5.5C11.55 5.5 8.75 8.3 8.75 11.75C8.75 15.1081 11.9932 19.2548 14.543 22.515C14.6982 22.7134 14.8508 22.9085 15 23.1C15.1192 22.9487 15.2403 22.7954 15.363 22.6402C17.9666 19.3443 21.25 15.1881 21.25 11.75C21.25 8.3 18.45 5.5 15 5.5ZM18.125 11.75C18.125 13.4759 16.7259 14.875 15 14.875C13.2741 14.875 11.875 13.4759 11.875 11.75C11.875 10.0241 13.2741 8.625 15 8.625C16.7259 8.625 18.125 10.0241 18.125 11.75Z" fill="#BED0FF"/>
</g>
</svg>
