<svg width="159" height="155" viewBox="0 0 159 155" fill="none" xmlns="http://www.w3.org/2000/svg">
<path d="M147.403 1.3335H11.0272C5.33945 1.3335 0.71875 5.94492 0.71875 11.6419V143.592C0.71875 149.279 5.33017 153.9 11.0272 153.9H147.403C153.09 153.9 157.711 149.289 157.711 143.592V11.6419C157.711 5.9542 153.1 1.3335 147.403 1.3335ZM156.319 143.592C156.319 148.509 152.32 152.508 147.403 152.508H11.0272C6.10956 152.508 2.11053 148.509 2.11053 143.592V11.6419C2.11053 6.72431 6.10956 2.72527 11.0272 2.72527H147.403C152.32 2.72527 156.319 6.72431 156.319 11.6419V143.592Z" fill="#F7F7F7" stroke="#F7F7F7" stroke-width="0.75"/>
<path d="M22.8571 39.6636C20.2684 39.6636 18.125 40.2481 16.4456 41.408C14.7662 42.5678 13.9219 44.2101 13.9219 46.3256C13.9219 48.4411 14.6085 50.0555 15.991 51.1411C17.3735 52.2267 19.0715 52.7649 21.0756 52.7649C22.8942 52.7649 24.388 52.4123 25.5479 51.7071C26.7077 51.0019 27.552 50.2133 28.0716 49.3318C28.1087 49.8885 28.2108 50.4452 28.3685 51.0019C28.5263 51.5586 28.7118 52.0133 28.9252 52.3566H31.8944V52.0411C31.6438 51.4566 31.449 50.7793 31.3098 50.0184C31.1706 49.2576 31.0964 48.4411 31.0964 47.5782V38.012C31.0964 35.6182 30.4191 33.8181 29.0551 32.6119C27.6912 31.4057 25.7798 30.7933 23.3025 30.7933C20.8251 30.7933 18.8673 31.4057 17.4013 32.6305C15.9353 33.8552 15.2116 35.312 15.2116 37.0192V37.1213H18.2642V37.0192C18.2642 36.0079 18.6446 35.145 19.4148 34.4212C20.1756 33.6975 21.4468 33.3357 23.2097 33.3357C24.9726 33.3357 26.2159 33.7717 26.9304 34.6346C27.6448 35.4975 27.9974 36.6295 27.9974 38.0213V39.6729H22.8571V39.6636ZM27.9974 45.2214C27.9974 46.4276 27.3665 47.5689 26.1046 48.6266C24.8427 49.6937 23.4045 50.2225 21.7993 50.2225C20.1942 50.2225 18.9601 49.87 18.1807 49.1741C17.4013 48.4782 17.0116 47.4668 17.0116 46.1586C17.0116 44.8503 17.5405 43.8111 18.6075 43.0595C19.6746 42.308 21.2241 41.9368 23.2746 41.9368H27.9974V45.2214Z" fill="#F7F7F7" stroke="#F7F7F7" stroke-width="0.75"/>
<path d="M40.6477 44.5261H53.5634L56.4212 52.3572H59.7893L48.7015 23.1299H45.6117L34.5703 52.3572H37.7807L40.6477 44.5261ZM46.1128 29.6156C46.2984 29.1238 46.4654 28.6506 46.6138 28.1867C46.7623 27.732 46.8922 27.2588 47.0128 26.7856H47.2077C47.3283 27.2681 47.4675 27.732 47.6159 28.1774C47.7644 28.632 47.9407 29.1052 48.1262 29.6156L52.5985 41.8725H41.622L46.1128 29.6156Z" fill="#F7F7F7" stroke="#F7F7F7" stroke-width="0.75"/>
<path d="M19.0132 121.184C18.6792 120.572 18.3637 120.126 18.0575 119.829C17.7049 119.486 17.3802 119.319 16.9998 119.291H16.8699C16.4245 119.291 16.0719 119.458 15.6822 119.848C15.376 120.145 15.0605 120.609 14.7451 121.212C14.1698 122.307 13.6409 123.782 13.3626 124.608C12.6296 126.797 11.8502 129.989 11.8595 131.26C11.878 134.053 14.1512 136.317 16.9441 136.317H16.9719C19.774 136.299 22.038 134.007 22.0287 131.205C22.0287 129.924 21.2029 126.742 20.4514 124.571C20.238 123.949 19.6627 122.372 19.0225 121.193L19.0132 121.184ZM16.9348 134.369C16.109 134.369 15.3296 134.044 14.7358 133.459C14.1327 132.866 13.8079 132.086 13.7987 131.251C13.7987 130.732 13.9193 130.045 14.1049 129.182C14.3183 128.18 14.6245 127.057 14.977 125.925C15.4317 124.478 15.8863 123.29 16.3317 122.399L16.8791 121.277L17.4451 122.39C17.8998 123.29 18.373 124.469 18.8369 125.907C19.1988 127.002 19.5142 128.124 19.7462 129.154C19.9782 130.166 20.0709 130.769 20.0802 131.223C20.0895 132.949 18.6884 134.369 16.9626 134.378H16.9441L16.9348 134.369Z" fill="#F7F7F7" stroke="#F7F7F7" stroke-width="0.75"/>
<path d="M57.0103 92.9121L41.5522 84.0697L41.9791 83.3182C42.109 83.0862 42.1461 82.8264 42.0811 82.5759C42.0162 82.3254 41.8492 82.1212 41.6172 81.9914L35.2336 78.3449C35.048 78.2428 34.8532 78.1964 34.649 78.2243H34.6398L34.5006 78.2521C34.2408 78.3171 34.0367 78.4748 33.9068 78.7068L17.4838 107.414C17.3632 107.637 17.326 107.897 17.391 108.157C17.4559 108.407 17.623 108.621 17.8456 108.751L24.2293 112.397C24.4519 112.527 24.7117 112.564 24.9715 112.49C25.2221 112.425 25.4355 112.258 25.5654 112.035L25.9922 111.284L41.4595 120.126C42.61 120.785 43.8812 121.119 45.1709 121.119C45.8296 121.119 46.4977 121.026 47.1565 120.85C49.0957 120.321 50.7101 119.078 51.7029 117.333L59.8031 103.165C61.8629 99.5741 60.6103 94.972 57.0195 92.9214L57.0103 92.9121ZM56.6206 104.798L49.9957 116.368C49.2627 117.658 48.0658 118.577 46.6276 118.966C45.1894 119.356 43.6956 119.17 42.4059 118.437L30.8263 111.812L56.6113 104.789L56.6206 104.798ZM58.1144 102.172L57.9845 102.395L28.4417 110.439L26.9479 109.586L40.578 85.7491L56.036 94.5916C58.6897 96.1132 59.6175 99.5092 58.1144 102.163V102.172ZM39.8079 83.1975L24.3499 110.217L19.655 107.535L35.113 80.5161L39.8079 83.1975Z" fill="#F7F7F7" stroke="#F7F7F7" stroke-width="0.75"/>
<path d="M139.304 24.9385H80.1441C79.7496 24.9385 79.4297 25.2583 79.4297 25.6529V26.4509C79.4297 26.8454 79.7496 27.1653 80.1441 27.1653H139.304C139.698 27.1653 140.018 26.8454 140.018 26.4509V25.6529C140.018 25.2583 139.698 24.9385 139.304 24.9385Z" fill="#F7F7F7" stroke="#F7F7F7" stroke-width="0.75"/>
<path d="M139.304 37.0732H80.1441C79.7496 37.0732 79.4297 37.3931 79.4297 37.7877V38.5856C79.4297 38.9802 79.7496 39.3001 80.1441 39.3001H139.304C139.698 39.3001 140.018 38.9802 140.018 38.5856V37.7877C140.018 37.3931 139.698 37.0732 139.304 37.0732Z" fill="#F7F7F7" stroke="#F7F7F7" stroke-width="0.75"/>
<path d="M109.01 49.1635H80.1441C79.7496 49.1635 79.4297 49.4833 79.4297 49.8779V50.6758C79.4297 51.0704 79.7496 51.3903 80.1441 51.3903H109.01C109.404 51.3903 109.724 51.0704 109.724 50.6758V49.8779C109.724 49.4833 109.404 49.1635 109.01 49.1635Z" fill="#F7F7F7" stroke="#F7F7F7" stroke-width="0.75"/>
<path d="M137.281 72.7035H115.977C114.279 72.7035 112.906 74.0767 112.906 75.7747V97.0782C112.906 98.7761 114.279 100.149 115.977 100.149H137.281C138.979 100.149 140.352 98.7761 140.352 97.0782V75.7747C140.352 74.0767 138.979 72.7035 137.281 72.7035ZM138.311 97.0782C138.311 97.6441 137.847 98.1081 137.281 98.1081H115.977C115.411 98.1081 114.948 97.6441 114.948 97.0782V75.7747C114.948 75.2087 115.411 74.7448 115.977 74.7448H137.281C137.847 74.7448 138.311 75.2087 138.311 75.7747V97.0782Z" fill="#F7F7F7" stroke="#F7F7F7" stroke-width="0.75"/>
<path d="M100.937 72.7035H79.6337C77.9357 72.7035 76.5625 74.0767 76.5625 75.7747V97.0782C76.5625 98.7761 77.9357 100.149 79.6337 100.149H100.937C102.635 100.149 104.008 98.7761 104.008 97.0782V75.7747C104.008 74.0767 102.635 72.7035 100.937 72.7035ZM101.967 97.0782C101.967 97.6441 101.503 98.1081 100.937 98.1081H79.6337C79.0677 98.1081 78.6038 97.6441 78.6038 97.0782V75.7747C78.6038 75.2087 79.0677 74.7448 79.6337 74.7448H100.937C101.503 74.7448 101.967 75.2087 101.967 75.7747V97.0782Z" fill="#F7F7F7" stroke="#F7F7F7" stroke-width="0.75"/>
<path d="M103.321 109.864H87.9835C87.6043 109.864 87.2969 110.172 87.2969 110.551V111.404C87.2969 111.784 87.6043 112.091 87.9835 112.091H103.321C103.7 112.091 104.007 111.784 104.007 111.404V110.551C104.007 110.172 103.7 109.864 103.321 109.864Z" fill="#F7F7F7" stroke="#F7F7F7" stroke-width="0.75"/>
<path d="M103.321 121.982H87.9835C87.6043 121.982 87.2969 122.289 87.2969 122.668V123.522C87.2969 123.901 87.6043 124.209 87.9835 124.209H103.321C103.7 124.209 104.007 123.901 104.007 123.522V122.668C104.007 122.289 103.7 121.982 103.321 121.982Z" fill="#F7F7F7" stroke="#F7F7F7" stroke-width="0.75"/>
<path d="M103.321 134.099H87.9835C87.6043 134.099 87.2969 134.407 87.2969 134.786V135.64C87.2969 136.019 87.6043 136.326 87.9835 136.326H103.321C103.7 136.326 104.007 136.019 104.007 135.64V134.786C104.007 134.407 103.7 134.099 103.321 134.099Z" fill="#F7F7F7" stroke="#F7F7F7" stroke-width="0.75"/>
<path d="M76.8609 109.864H79.5424C79.7094 109.864 79.8486 110.003 79.8486 110.17V111.794C79.8486 111.961 79.7094 112.1 79.5424 112.1H76.8609C76.6939 112.1 76.5547 111.961 76.5547 111.794V110.17C76.5547 110.003 76.6939 109.864 76.8609 109.864Z" fill="#F7F7F7" stroke="#F7F7F7" stroke-width="0.75"/>
<path d="M76.8609 121.982H79.5424C79.7094 121.982 79.8486 122.121 79.8486 122.288V123.912C79.8486 124.079 79.7094 124.218 79.5424 124.218H76.8609C76.6939 124.218 76.5547 124.079 76.5547 123.912V122.288C76.5547 122.121 76.6939 121.982 76.8609 121.982Z" fill="#F7F7F7" stroke="#F7F7F7" stroke-width="0.75"/>
<path d="M76.8609 134.099H79.5424C79.7094 134.099 79.8486 134.239 79.8486 134.406V136.029C79.8486 136.196 79.7094 136.335 79.5424 136.335H76.8609C76.6939 136.335 76.5547 136.196 76.5547 136.029V134.406C76.5547 134.239 76.6939 134.099 76.8609 134.099Z" fill="#F7F7F7" stroke="#F7F7F7" stroke-width="0.75"/>
<path d="M139.665 109.864H124.327C123.948 109.864 123.641 110.172 123.641 110.551V111.404C123.641 111.784 123.948 112.091 124.327 112.091H139.665C140.044 112.091 140.351 111.784 140.351 111.404V110.551C140.351 110.172 140.044 109.864 139.665 109.864Z" fill="#F7F7F7" stroke="#F7F7F7" stroke-width="0.75"/>
<path d="M139.665 121.982H124.327C123.948 121.982 123.641 122.289 123.641 122.668V123.522C123.641 123.901 123.948 124.209 124.327 124.209H139.665C140.044 124.209 140.351 123.901 140.351 123.522V122.668C140.351 122.289 140.044 121.982 139.665 121.982Z" fill="#F7F7F7" stroke="#F7F7F7" stroke-width="0.75"/>
<path d="M139.665 134.099H124.327C123.948 134.099 123.641 134.407 123.641 134.786V135.64C123.641 136.019 123.948 136.326 124.327 136.326H139.665C140.044 136.326 140.351 136.019 140.351 135.64V134.786C140.351 134.407 140.044 134.099 139.665 134.099Z" fill="#F7F7F7" stroke="#F7F7F7" stroke-width="0.75"/>
<path d="M113.205 109.864H115.886C116.053 109.864 116.192 110.003 116.192 110.17V111.794C116.192 111.961 116.053 112.1 115.886 112.1H113.205C113.038 112.1 112.898 111.961 112.898 111.794V110.17C112.898 110.003 113.038 109.864 113.205 109.864Z" fill="#F7F7F7" stroke="#F7F7F7" stroke-width="0.75"/>
<path d="M113.205 121.982H115.886C116.053 121.982 116.192 122.121 116.192 122.288V123.912C116.192 124.079 116.053 124.218 115.886 124.218H113.205C113.038 124.218 112.898 124.079 112.898 123.912V122.288C112.898 122.121 113.038 121.982 113.205 121.982Z" fill="#F7F7F7" stroke="#F7F7F7" stroke-width="0.75"/>
<path d="M113.205 134.099H115.886C116.053 134.099 116.192 134.239 116.192 134.406V136.029C116.192 136.196 116.053 136.335 115.886 136.335H113.205C113.038 136.335 112.898 136.196 112.898 136.029V134.406C112.898 134.239 113.038 134.099 113.205 134.099Z" fill="#F7F7F7" stroke="#F7F7F7" stroke-width="0.75"/>
</svg>
