<svg width="30" height="46" viewBox="0 0 54 46" fill="none" xmlns="http://www.w3.org/2000/svg">
<path id="&#226;&#128;&#156;" fill-rule="evenodd" clip-rule="evenodd" d="M53.3664 7.78278C45.4863 11.6473 41.5462 16.1881 41.5462 21.4052C44.905 21.7916 47.6824 23.1603 49.8785 25.5112C52.0746 27.8622 53.1727 30.5834 53.1727 33.675C53.1727 36.9599 52.1069 39.7294 49.9754 41.9837C47.8439 44.238 45.1634 45.3652 41.9338 45.3652C38.3167 45.3652 35.184 43.8999 32.5357 40.9693C29.8875 38.0387 28.5634 34.4801 28.5634 30.2936C28.5634 17.7338 35.6038 7.91163 49.6847 0.82666L53.3664 7.78278ZM25.557 7.78278C17.6122 11.6473 13.6399 16.1881 13.6399 21.4052C17.0632 21.7916 19.8729 23.1603 22.069 25.5112C24.2651 27.8622 25.3632 30.5834 25.3632 33.675C25.3632 36.9599 24.2813 39.7294 22.1175 41.9837C19.9537 44.238 17.257 45.3652 14.0274 45.3652C10.4103 45.3652 7.29379 43.8999 4.67783 40.9693C2.06187 38.0387 0.753906 34.4801 0.753906 30.2936C0.753906 17.7338 7.76199 7.91163 21.7784 0.82666L25.557 7.78278Z" fill="#FF8E26"/>
</svg>
