<svg width="21" height="20" viewBox="0 0 21 20" fill="none" xmlns="http://www.w3.org/2000/svg">
<g id="Whatsapp" clip-path="url(#clip0_1956_558)">
<path id="Vector" d="M17.5849 2.90641C15.7048 1.03328 13.2048 0.00114284 10.5412 0C5.05249 0 0.585797 4.44562 0.583599 9.90993C0.58296 11.6566 1.04136 13.3616 1.91266 14.8646L0.5 20L5.77864 18.622C7.233 19.4116 8.87052 19.8277 10.5369 19.8284H10.5411H10.5412C16.029 19.8284 20.4964 15.382 20.4987 9.91796C20.4996 7.2697 19.4648 4.77968 17.5849 2.90641ZM10.5412 18.1546H10.538C9.05262 18.1538 7.59604 17.7568 6.32556 17.0062L6.0232 16.8278L2.89075 17.6454L3.72707 14.6059L3.53008 14.2942C2.70154 12.9827 2.26415 11.4669 2.26477 9.91057C2.26659 5.36881 5.97914 1.67389 10.5443 1.67389C12.755 1.6748 14.8328 2.53272 16.3955 4.08961C17.9581 5.64649 18.818 7.71614 18.8174 9.91726C18.8155 14.4592 15.1028 18.1546 10.5412 18.1546Z" fill="#E0E0E0"/>
<path id="Vector_2" d="M0.957031 19.4297L2.30517 14.5289C1.47345 13.0946 1.03607 11.4673 1.0366 9.80077C1.03878 4.58618 5.30148 0.34375 10.539 0.34375C13.081 0.344893 15.4669 1.32983 17.2607 3.11744C19.0549 4.90505 20.0424 7.28116 20.0414 9.80817C20.0392 15.0229 15.7762 19.2657 10.5394 19.2657C10.539 19.2657 10.5396 19.2657 10.5394 19.2657H10.5351C8.94487 19.2652 7.38228 18.8677 5.99444 18.1147L0.957031 19.4297Z" fill="url(#paint0_linear_1956_558)"/>
<path id="Vector_3" fill-rule="evenodd" clip-rule="evenodd" d="M8.08056 5.70227C7.89634 5.29449 7.70238 5.28632 7.52711 5.27919C7.38376 5.27307 7.21964 5.27344 7.05579 5.27344C6.89181 5.27344 6.62533 5.3348 6.39998 5.57982C6.1745 5.82485 5.53906 6.41718 5.53906 7.62188C5.53906 8.82672 6.42048 9.99087 6.54334 10.1544C6.66633 10.3176 8.24481 12.8689 10.7447 13.8504C12.8223 14.6661 13.2451 14.5038 13.696 14.463C14.147 14.4222 15.1511 13.8708 15.3561 13.299C15.5611 12.7273 15.5611 12.2373 15.4996 12.1348C15.4381 12.0328 15.2741 11.9716 15.0281 11.8491C14.7822 11.7267 13.573 11.1342 13.3476 11.0526C13.1221 10.9709 12.9581 10.9301 12.7941 11.1753C12.6301 11.4202 12.159 11.9716 12.0156 12.1348C11.8721 12.2985 11.7286 12.3189 11.4826 12.1964C11.2366 12.0736 10.4445 11.8153 9.5048 10.9811C8.77366 10.3322 8.28003 9.53063 8.13655 9.28549C7.99306 9.04059 8.12117 8.90794 8.24455 8.78587C8.35497 8.67617 8.49052 8.50003 8.61351 8.35704C8.73624 8.21406 8.77724 8.11202 8.85923 7.94875C8.94122 7.78523 8.90022 7.64226 8.83873 7.51981C8.77724 7.39736 8.29925 6.18644 8.08056 5.70227Z" fill="white"/>
<path id="Vector_4" d="M17.504 2.87306C15.6454 1.02142 13.1742 0.00115917 10.5412 0C5.11547 0 0.700047 4.39459 0.697866 9.79617C0.697227 11.5228 1.15037 13.2083 2.01166 14.6939L0.615234 19.7704L5.83328 18.4082C7.27096 19.1888 8.88967 19.6001 10.5369 19.6008H10.5411H10.5412C15.966 19.6008 20.382 15.2054 20.3844 9.80407C20.3853 7.18626 19.3623 4.72482 17.504 2.87306ZM10.5412 17.9462H10.538C9.06968 17.9454 7.62981 17.553 6.37392 16.811L6.07502 16.6346L2.97853 17.4429L3.80525 14.4382L3.61051 14.1302C2.79149 12.8336 2.35911 11.3353 2.35975 9.79682C2.36154 5.30721 6.03147 1.65471 10.5443 1.65471C12.7296 1.6556 14.7835 2.50367 16.3283 4.04269C17.873 5.58171 18.723 7.62759 18.7224 9.80346C18.7204 14.2932 15.0504 17.9462 10.5412 17.9462Z" fill="white"/>
</g>
<defs>
<linearGradient id="paint0_linear_1956_558" x1="10.4992" y1="19.4297" x2="10.4992" y2="0.343782" gradientUnits="userSpaceOnUse">
<stop stop-color="#20B038"/>
<stop offset="1" stop-color="#60D66A"/>
</linearGradient>
<clipPath id="clip0_1956_558">
<rect width="20" height="20" fill="white" transform="translate(0.5)"/>
</clipPath>
</defs>
</svg>
