<svg width="30" height="37" viewBox="0 0 43 37" fill="none" xmlns="http://www.w3.org/2000/svg">
<path id="&#226;&#128;&#156;" fill-rule="evenodd" clip-rule="evenodd" d="M42.5532 6.05329C36.1856 9.18187 33.0018 12.8579 33.0018 17.0815C35.7159 17.3943 37.9602 18.5024 39.7348 20.4056C41.5094 22.3088 42.3966 24.5118 42.3966 27.0147C42.3966 29.674 41.5355 31.9161 39.813 33.7411C38.0906 35.5661 35.9246 36.4786 33.3149 36.4786C30.3921 36.4786 27.8607 35.2923 25.7207 32.9198C23.5808 30.5473 22.5108 27.6665 22.5108 24.2772C22.5108 14.1093 28.1999 6.15761 39.5782 0.421875L42.5532 6.05329ZM20.0815 6.05329C13.6616 9.18187 10.4517 12.8579 10.4517 17.0815C13.218 17.3943 15.4884 18.5024 17.263 20.4056C19.0376 22.3088 19.9249 24.5118 19.9249 27.0147C19.9249 29.674 19.0506 31.9161 17.3021 33.7411C15.5536 35.5661 13.3746 36.4786 10.7649 36.4786C7.84201 36.4786 5.32369 35.2923 3.20983 32.9198C1.09597 30.5473 0.0390625 27.6665 0.0390625 24.2772C0.0390625 14.1093 5.70202 6.15761 17.0281 0.421875L20.0815 6.05329Z" fill="#00204A"/>
</svg>
